
<global>
</global>

<group>
ampeg_attack=0.002
ampeg_release=0.3
group_label=Sustain
loop_mode=loop_continuous

<region>
end=178928
hikey=D#3
hivel=127
lokey=D3
loop_end=129908
loop_start=37661
loop_xfade=10000
lovel=0
offset=18126
pitch_keycenter=D3
sample=Fender_Stratocaster_Half_Trill_FF_D4.opus
volume=+12.90
</region>

<region>
end=185144
hikey=C#6
hivel=127
lokey=C6
loop_end=157271
loop_start=37941
loop_xfade=10000
lovel=0
offset=17749
pitch_keycenter=C6
sample=Fender_Stratocaster_Half_Trill_FF_C7.opus
volume=+15.61
</region>

<region>
end=182433
hikey=A4
hivel=127
lokey=G#4
loop_end=138993
loop_start=58442
loop_xfade=10000
lovel=0
offset=19005
pitch_keycenter=G#4
sample=Fender_Stratocaster_Half_Trill_FF_G#5.opus
volume=+14.47
</region>

<region>
end=182518
hikey=B3
hivel=127
lokey=A#3
loop_end=149286
loop_start=53627
loop_xfade=10000
lovel=0
offset=20909
pitch_keycenter=A#3
sample=Fender_Stratocaster_Half_Trill_FF_A#4.opus
volume=+15.13
</region>

<region>
end=173168
hikey=C#5
hivel=127
lokey=C5
loop_end=147318
loop_start=71744
loop_xfade=10000
lovel=0
offset=20680
pitch_keycenter=C5
sample=Fender_Stratocaster_Half_Trill_FF_C6.opus
volume=+16.45
</region>

<region>
end=176877
hikey=D#4
hivel=127
lokey=D4
loop_end=121444
loop_start=42935
loop_xfade=10000
lovel=0
offset=19097
pitch_keycenter=D4
sample=Fender_Stratocaster_Half_Trill_FF_D5.opus
volume=+9.71
</region>

<region>
end=179459
hikey=F3
hivel=127
lokey=E3
loop_end=157383
loop_start=87939
loop_xfade=10000
lovel=0
offset=19677
pitch_keycenter=E3
sample=Fender_Stratocaster_Half_Trill_FF_E4.opus
volume=+13.24
</region>

<region>
end=177478
hikey=C#3
hivel=127
lokey=C3
loop_end=142063
loop_start=39360
loop_xfade=10000
lovel=0
offset=19817
pitch_keycenter=C3
sample=Fender_Stratocaster_Half_Trill_FF_C4.opus
volume=+10.41
</region>

<region>
end=181801
hikey=D#5
hivel=127
lokey=D5
loop_end=153106
loop_start=62766
loop_xfade=10000
lovel=0
offset=18805
pitch_keycenter=D5
sample=Fender_Stratocaster_Half_Trill_FF_D6.opus
volume=+18.69
</region>

<region>
end=186422
hikey=F5
hivel=127
lokey=E5
loop_end=159707
loop_start=56001
loop_xfade=10000
lovel=0
offset=18556
pitch_keycenter=E5
sample=Fender_Stratocaster_Half_Trill_FF_E6.opus
volume=+19.42
</region>

<region>
end=181628
hikey=G3
hivel=127
lokey=F#3
loop_end=116001
loop_start=42955
loop_xfade=10000
lovel=0
offset=18064
pitch_keycenter=F#3
sample=Fender_Stratocaster_Half_Trill_FF_F#4.opus
volume=+15.55
</region>

<region>
end=185753
hikey=G4
hivel=127
lokey=F#4
loop_end=140778
loop_start=64316
loop_xfade=10000
lovel=0
offset=18805
pitch_keycenter=F#4
sample=Fender_Stratocaster_Half_Trill_FF_F#5.opus
volume=+14.65
</region>

<region>
end=179795
hikey=G5
hivel=127
lokey=F#5
loop_end=154620
loop_start=66348
loop_xfade=10000
lovel=0
offset=18377
pitch_keycenter=F#5
sample=Fender_Stratocaster_Half_Trill_FF_F#6.opus
volume=+18.25
</region>

<region>
end=180886
hikey=A2
hivel=127
lokey=G#2
loop_end=159296
loop_start=54054
loop_xfade=10000
lovel=0
offset=21770
pitch_keycenter=G#2
sample=Fender_Stratocaster_Half_Trill_FF_G#3.opus
volume=+8.49
</region>

<region>
end=178147
hikey=B2
hivel=127
lokey=A#2
loop_end=152791
loop_start=42328
loop_xfade=10000
lovel=0
offset=20348
pitch_keycenter=A#2
sample=Fender_Stratocaster_Half_Trill_FF_A#3.opus
volume=+8.25
</region>

<region>
end=177204
hikey=F4
hivel=127
lokey=E4
loop_end=151539
loop_start=66837
loop_xfade=10000
lovel=0
offset=18486
pitch_keycenter=E4
sample=Fender_Stratocaster_Half_Trill_FF_E5.opus
volume=+13.97
</region>

<region>
end=183775
hikey=C#4
hivel=127
lokey=C4
loop_end=151514
loop_start=54088
loop_xfade=10000
lovel=0
offset=20040
sample=Fender_Stratocaster_Half_Trill_FF_C5.opus
volume=+11.68
</region>

<region>
end=186135
hikey=G2
hivel=127
lokey=F#2
loop_end=145370
loop_start=55445
loop_xfade=10000
lovel=0
offset=18260
pitch_keycenter=F#2
sample=Fender_Stratocaster_Half_Trill_FF_F#3.opus
volume=+7.73
</region>

<region>
end=185391
hikey=B5
hivel=127
lokey=A#5
loop_end=145649
loop_start=42624
loop_xfade=10000
lovel=0
offset=18537
pitch_keycenter=A#5
sample=Fender_Stratocaster_Half_Trill_FF_A#6.opus
volume=+22.10
</region>

<region>
end=180133
hikey=F2
hivel=127
lokey=E2
loop_end=142645
loop_start=70913
loop_xfade=10000
lovel=0
offset=20650
pitch_keycenter=E2
sample=Fender_Stratocaster_Half_Trill_FF_E3.opus
volume=+4.00
</region>

<region>
end=184923
hikey=A3
hivel=127
lokey=G#3
loop_end=138237
loop_start=44862
loop_xfade=10000
lovel=0
offset=20043
pitch_keycenter=G#3
sample=Fender_Stratocaster_Half_Trill_FF_G#4.opus
volume=+13.44
</region>

<region>
end=178608
hikey=A5
hivel=127
lokey=G#5
loop_end=151654
loop_start=38593
loop_xfade=10000
lovel=0
offset=19155
pitch_keycenter=G#5
sample=Fender_Stratocaster_Half_Trill_FF_G#6.opus
volume=+20.34
</region>

<region>
end=183351
hikey=D#2
hivel=127
lokey=C2
loop_end=148793
loop_start=43687
loop_xfade=10000
lovel=0
offset=19711
pitch_keycenter=D2
sample=Fender_Stratocaster_Half_Trill_FF_D3.opus
volume=+7.81
</region>

<region>
end=182385
hikey=B4
hivel=127
lokey=A#4
loop_end=145465
loop_start=72068
loop_xfade=10000
lovel=0
offset=17666
pitch_keycenter=A#4
sample=Fender_Stratocaster_Half_Trill_FF_A#5.opus
volume=+14.98
</region>
</group>